<svg
  xmlns="http://www.w3.org/2000/svg"
  viewBox="0 0 24 24"
  fill="currentColor"
>
  <g transform="translate(12 12) scale(.1730) translate(-69.39 -59.475)">
    <path d="M138.77,55.55c-.1-1.05-.6-2-1.43-2.65L71.77.84c-1.4-1.13-3.4-1.13-4.79,0L1.42,52.9c-1.63,1.33-1.89,3.73-.59,5.38,1.3,1.65,3.7,1.95,5.38.68,6.92-5.47,61.59-48.25,61.94-48.71.73-.56,1.73-.56,2.46,0,17.74,14.03,44.42,34.91,61.94,48.71,1.22.92,2.87,1.05,4.22.32,1.33-.73,2.13-2.19,2-3.71v-.02Z"/>
    <path d="M46.48,32.35h45.79l-22.89-17.99-22.89,17.99Z"/>
    <path d="M24.47,49.66h89.82l-16.96-13.34h-55.9s-16.96,13.34-16.96,13.34Z"/>

    <path d="M19.36,88.28c-3.65.03-6.6,3-6.62,6.66,0,3.65,2.94,6.65,6.6,6.68,3.65-.03,6.6-3,6.62-6.66,0-3.65-2.94-6.65-6.6-6.68Z"/>
    <path d="M19.36,105.61c-3.65.03-6.6,3-6.62,6.66,0,3.65,2.94,6.63,6.6,6.68,3.65-.03,6.6-3,6.62-6.66,0-3.67-2.94-6.63-6.6-6.68Z"/>
    <path d="M19.36,70.97c-3.65.03-6.6,3-6.62,6.66,0,3.67,2.94,6.63,6.6,6.68,3.65-.03,6.6-3,6.62-6.66.02-3.67-2.94-6.63-6.6-6.68Z"/>
    <path d="M19.39,53.63s-6.54,5.19-6.57,5.16c-.65,2.76.52,5.63,2.92,7.16s5.49,1.36,7.71-.38c2.24-1.76,3.11-4.73,2.19-7.41-.92-2.68-3.43-4.49-6.27-4.52h.02Z"/>

    <path d="M119.43,88.28c-3.41.03-6.24,2.63-6.58,6.01s1.92,6.49,5.24,7.2c1.86.4,3.81,0,5.35-1.13,1.54-1.11,2.52-2.84,2.71-4.73.19-1.9-.43-3.78-1.73-5.19-1.29-1.41-3.11-2.21-5.01-2.17h.03Z"/>
    <path d="M119.56,101.66c-.14-.03-.27-.03-.41-.03.14,0,.29,0,.41.03Z"/>
    <path d="M119.43,105.61c-3.67.03-6.6,3.01-6.6,6.66s2.95,6.63,6.6,6.66c3.65-.03,6.6-3.01,6.6-6.66s-2.95-6.63-6.6-6.66Z"/>
    <path d="M119.43,70.97c-3.65.05-6.6,3.01-6.6,6.66s2.94,6.63,6.6,6.66c3.65-.05,6.6-3.01,6.6-6.66s-2.95-6.63-6.6-6.66Z"/>
    <path d="M125.93,58.82c-.08-.03-6.54-5.19-6.63-5.2-3.63.1-6.52,3.06-6.55,6.68,0,1.89.83,3.68,2.24,4.93,1.41,1.25,3.3,1.84,5.17,1.63,1.87-.21,3.57-1.21,4.68-2.74,1.11-1.54,1.51-3.47,1.09-5.32v.02Z"/>

    <path d="M27.63,88.28c3.09,3.9,3.09,9.44,0,13.36h26.42v-13.36h-26.42Z"/>
    <path d="M27.63,105.61c3.09,3.9,3.09,9.42,0,13.34h26.42v-13.34h-26.42Z"/>
    <path d="M84.71,105.61v13.34h26.43c-3.11-3.9-3.11-9.44,0-13.34h-26.43Z"/>
    <path d="M84.71,88.28v13.36h26.43c-3.11-3.9-3.11-9.46,0-13.36h-26.43Z"/>
    <path d="M111.15,70.97h-26.42v13.36h26.43c-3.11-3.9-3.11-9.44-.02-13.36Z"/>
    <path d="M27.64,70.97c3.08,3.93,3.06,9.44-.02,13.36h26.42v-13.36c-2.06,0-23.7,0-26.4,0Z"/>
    <path d="M29.99,60.31c0,2.44-.84,4.81-2.38,6.68h83.52c-3.09-3.9-3.09-9.44,0-13.36q-83.53.02-83.52,0c1.54,1.87,2.38,4.24,2.38,6.66v.02Z"/>

    <path d="M77.08,97.03l3.67.04v21.82s-22.95,0-22.95,0v-47.91s22.95,0,22.95,0v23.14s-3.47,0-3.47,0c0,0-1.38.16-1.43,1.27-.06,1.22.77,1.64,1.23,1.65Z"/>
  </g>
</svg>
