<svg
  xmlns="http://www.w3.org/2000/svg"
  viewBox="0 0 24 24"
  fill="currentColor"
>
  <g transform="translate(12 12) scale(.27) translate(-43.73 -37.48)">
    <path d="M87.46 35.01c-.06-.66-.38-1.26-.9-1.67L45.23.53c-.88-.71-2.14-.71-3.02 0L.89 33.34c-1.03.84-1.19 2.35-.37 3.39.82 1.04 2.33 1.23 3.39.43 4.36-3.45 38.82-30.41 39.04-30.7.46-.35 1.09-.35 1.55 0 11.18 8.84 28 22 39.04 30.7.77.58 1.81.66 2.66.2.84-.46 1.34-1.38 1.26-2.34Z"/>

    <path d="M29.29 20.39h28.86L43.72 9.05 29.29 20.39Z"/>
    <path d="M15.42 31.3h56.61l-10.69-8.41H26.11l-10.69 8.41Z"/>

    <path d="M12.2 55.64c-2.3.02-4.16 1.89-4.17 4.2 0 2.3 1.85 4.19 4.16 4.21 2.3-.02 4.16-1.89 4.17-4.2 0-2.3-1.85-4.19-4.16-4.21Z"/>
    <path d="M12.2 66.56c-2.3.02-4.16 1.89-4.17 4.2 0 2.3 1.85 4.18 4.16 4.21 2.3-.02 4.16-1.89 4.17-4.2 0-2.31-1.85-4.18-4.16-4.21Z"/>
    <path d="M12.2 44.73c-2.3.02-4.16 1.89-4.17 4.2 0 2.31 1.85 4.18 4.16 4.21 2.3-.02 4.16-1.89 4.17-4.2s-1.85-4.18-4.16-4.21Z"/>
    <path d="M12.22 33.8s-4.12 3.27-4.14 3.25c-.41 1.74.33 3.55 1.84 4.51 1.51.96 3.46.86 4.86-.24 1.41-1.11 1.96-2.98 1.38-4.67-.58-1.69-2.16-2.83-3.95-2.85Z"/>

    <path d="M75.27 55.64c-2.15.02-3.93 1.66-4.15 3.79-.22 2.13 1.21 4.09 3.3 4.54 1.17.25 2.4 0 3.37-.71.97-.7 1.59-1.79 1.71-2.98.12-1.2-.27-2.38-1.09-3.27-.81-.89-1.96-1.39-3.16-1.37Z"/>
    <path d="M75.35 64.07c-.09-.02-.17-.02-.26-.02.09 0 .18 0 .26.02Z"/>
    <path d="M75.27 66.56c-2.31.02-4.16 1.9-4.16 4.2s1.86 4.18 4.16 4.2c2.3-.02 4.16-1.9 4.16-4.2s-1.86-4.18-4.16-4.2Z"/>
    <path d="M75.27 44.73c-2.3.03-4.16 1.9-4.16 4.2s1.85 4.18 4.16 4.2c2.3-.03 4.16-1.9 4.16-4.2s-1.86-4.18-4.16-4.2Z"/>
    <path d="M79.37 37.07c-.05-.02-4.12-3.27-4.18-3.28-2.29.06-4.11 1.93-4.13 4.21 0 1.19.52 2.32 1.41 3.11.89.79 2.08 1.16 3.26 1.03 1.18-.13 2.25-.76 2.95-1.73.7-.97.95-2.19.69-3.35Z"/>

    <path d="M17.41 55.64c1.95 2.46 1.95 5.95 0 8.42 1.79 0 15.22 0 16.65 0v-8.42H17.41Z"/>
    <path d="M17.41 66.56c1.95 2.46 1.95 5.94 0 8.41 1.76 0 15.28 0 16.65 0v-8.41H17.41Z"/>

    <path d="M53.39 66.56v8.41h16.66c-1.96-2.46-1.96-5.95 0-8.41H53.39Z"/>
    <path d="M53.39 55.64v8.42h16.66c-1.96-2.46-1.96-5.96 0-8.42H53.39Z"/>

    <path d="M70.05 44.73c-1.76 0-15.28 0-16.65 0v8.42c1.3 0 14.97 0 16.66 0-1.96-2.46-1.96-5.95-.01-8.42Z"/>
    <path d="M17.42 44.73c1.94 2.48 1.93 5.95-.01 8.42 1.81 0 15.18 0 16.65 0v-8.42c-1.3 0-14.94 0-16.64 0Z"/>

    <path d="M18.9 38.01c0 1.54-.53 3.03-1.5 4.21h52.64c-1.95-2.46-1.95-5.95 0-8.42-52.65.01-52.64 0-52.64 0 .97 1.18 1.5 2.67 1.5 4.2Z"/>
  </g>
</svg>
